<svg width="400" height="400" viewBox="0 0 400 400" fill="none" xmlns="http://www.w3.org/2000/svg">
  <path d="M 20 20 L 380 20 L 380 380 L 20 380 Z" stroke="url(#frameGradient)" stroke-width="2" fill="none"/>
  <path d="M 20 20 L 60 20 M 20 20 L 20 60" stroke="cyan" stroke-width="3"/>
  <path d="M 380 20 L 340 20 M 380 20 L 380 60" stroke="cyan" stroke-width="3"/>
  <path d="M 20 380 L 60 380 M 20 380 L 20 340" stroke="cyan" stroke-width="3"/>
  <path d="M 380 380 L 340 380 M 380 380 L 380 340" stroke="cyan" stroke-width="3"/>
  <polygon points="200,80 280,130 280,250 200,300 120,250 120,130" stroke="url(#hexGradient)" stroke-width="1.5" fill="none" opacity="0.5"/>
  <circle cx="200" cy="190" r="80" stroke="url(#circleGradient)" stroke-width="2" fill="rgba(0,0,0,0.3)"/>
  <defs>
    <linearGradient id="frameGradient" x1="0%" y1="0%" x2="100%" y2="100%">
      <stop offset="0%" style="stop-color:#06b6d4;stop-opacity:0.8" />
      <stop offset="50%" style="stop-color:#8b5cf6;stop-opacity:0.6" />
      <stop offset="100%" style="stop-color:#06b6d4;stop-opacity:0.8" />
    </linearGradient>
    <linearGradient id="hexGradient" x1="0%" y1="0%" x2="100%" y2="0%">
      <stop offset="0%" style="stop-color:#00ff99;stop-opacity:0.8" />
      <stop offset="100%" style="stop-color:#06b6d4;stop-opacity:0.8" />
    </linearGradient>
    <radialGradient id="circleGradient">
      <stop offset="0%" style="stop-color:#06b6d4;stop-opacity:0.2" />
      <stop offset="100%" style="stop-color:#8b5cf6;stop-opacity:0.8" />
    </radialGradient>
  </defs>
</svg>
